<svg xmlns="http://www.w3.org/2000/svg" viewBox="0 0 48 48">
  <!-- Pin shape - outer -->
  <path d="M24 4C15.2 4 8 11.2 8 20C8 31 24 44 24 44C24 44 40 31 40 20C40 11.2 32.8 4 24 4Z" fill="#8b5cf6"/>
  
  <!-- Pin inner highlight -->
  <path d="M24 7C17 7 11 13 11 20C11 28.5 24 40 24 40C24 40 37 28.5 37 20C37 13 31 7 24 7Z" fill="#a78bfa"/>
  
  <!-- Globe center -->
  <circle cx="24" cy="19" r="9" fill="#1e1b4b"/>
  
  <!-- Globe lines -->
  <ellipse cx="24" cy="19" rx="9" ry="3.5" stroke="#c4b5fd" stroke-width="1.5" fill="none"/>
  <path d="M24 10C20.5 13.5 20.5 24.5 24 28" stroke="#c4b5fd" stroke-width="1.5" fill="none"/>
  <path d="M24 10C27.5 13.5 27.5 24.5 24 28" stroke="#c4b5fd" stroke-width="1.5" fill="none"/>
  <line x1="15" y1="19" x2="33" y2="19" stroke="#c4b5fd" stroke-width="1.5"/>
  
  <!-- Location dot -->
  <circle cx="28" cy="16" r="2.5" fill="#22d3ee"/>
  
  <!-- Ground reflection -->
  <ellipse cx="24" cy="46" rx="10" ry="2" fill="#6366f1" fill-opacity="0.5"/>
</svg>